/* XPM */
static char *_3daeb14d1d44eff81f624e82170a6c6fRWEDhDtAtbBQHSz[] = {
/* columns rows colors chars-per-pixel */
"64 64 256 2 ",
"   c black",
".  c #010101",
"X  c #020202",
"o  c gray1",
"O  c #040404",
"+  c gray2",
"@  c #060606",
"#  c #070707",
"$  c gray3",
"%  c #090909",
"&  c gray4",
"*  c #0B0B0B",
"=  c #0C0C0C",
"-  c gray5",
";  c #0E0E0E",
":  c gray6",
">  c #101010",
",  c #111111",
"<  c gray7",
"1  c #131313",
"2  c gray8",
"3  c #151515",
"4  c #161616",
"5  c gray9",
"6  c #181818",
"7  c #191919",
"8  c gray10",
"9  c #1B1B1B",
"0  c gray11",
"q  c #1D1D1D",
"w  c #1E1E1E",
"e  c gray12",
"r  c #202020",
"t  c gray13",
"y  c #222222",
"u  c #232323",
"i  c gray14",
"p  c #252525",
"a  c gray15",
"s  c #272727",
"d  c #282828",
"f  c gray16",
"g  c #2A2A2A",
"h  c gray17",
"j  c #2C2C2C",
"k  c #2D2D2D",
"l  c gray18",
"z  c #2F2F2F",
"x  c gray19",
"c  c #313131",
"v  c #323232",
"b  c gray20",
"n  c #343434",
"m  c #353535",
"M  c gray21",
"N  c #373737",
"B  c gray22",
"V  c #393939",
"C  c #3A3A3A",
"Z  c gray23",
"A  c #3C3C3C",
"S  c gray24",
"D  c #3E3E3E",
"F  c #3F3F3F",
"G  c gray25",
"H  c #414141",
"J  c gray26",
"K  c #434343",
"L  c #444444",
"P  c gray27",
"I  c #464646",
"U  c gray28",
"Y  c #484848",
"T  c #494949",
"R  c gray29",
"E  c #4B4B4B",
"W  c #4C4C4C",
"Q  c gray30",
"!  c #4E4E4E",
"~  c gray31",
"^  c #505050",
"/  c #515151",
"(  c gray32",
")  c #535353",
"_  c gray33",
"`  c #555555",
"'  c #565656",
"]  c gray34",
"[  c #585858",
"{  c gray35",
"}  c #5A5A5A",
"|  c #5B5B5B",
" . c gray36",
".. c #5D5D5D",
"X. c gray37",
"o. c #5F5F5F",
"O. c #606060",
"+. c gray38",
"@. c #626262",
"#. c gray39",
"$. c #646464",
"%. c #656565",
"&. c gray40",
"*. c #676767",
"=. c #686868",
"-. c DimGray",
";. c #6A6A6A",
":. c gray42",
">. c #6C6C6C",
",. c #6D6D6D",
"<. c gray43",
"1. c #6F6F6F",
"2. c gray44",
"3. c #717171",
"4. c #727272",
"5. c gray45",
"6. c #747474",
"7. c gray46",
"8. c #767676",
"9. c #777777",
"0. c gray47",
"q. c #797979",
"w. c gray48",
"e. c #7B7B7B",
"r. c #7C7C7C",
"t. c gray49",
"y. c #7E7E7E",
"u. c gray50",
"i. c #808080",
"p. c #818181",
"a. c gray51",
"s. c #838383",
"d. c #848484",
"f. c gray52",
"g. c #868686",
"h. c gray53",
"j. c #888888",
"k. c #898989",
"l. c gray54",
"z. c #8B8B8B",
"x. c gray55",
"c. c #8D8D8D",
"v. c #8E8E8E",
"b. c gray56",
"n. c #909090",
"m. c gray57",
"M. c #929292",
"N. c #939393",
"B. c gray58",
"V. c #959595",
"C. c gray59",
"Z. c #979797",
"A. c #989898",
"S. c gray60",
"D. c #9A9A9A",
"F. c #9B9B9B",
"G. c gray61",
"H. c #9D9D9D",
"J. c gray62",
"K. c #9F9F9F",
"L. c #A0A0A0",
"P. c gray63",
"I. c #A2A2A2",
"U. c gray64",
"Y. c #A4A4A4",
"T. c #A5A5A5",
"R. c gray65",
"E. c #A7A7A7",
"W. c gray66",
"Q. c #A9A9A9",
"!. c #AAAAAA",
"~. c gray67",
"^. c #ACACAC",
"/. c gray68",
"(. c #AEAEAE",
"). c #AFAFAF",
"_. c gray69",
"`. c #B1B1B1",
"'. c #B2B2B2",
"]. c gray70",
"[. c #B4B4B4",
"{. c gray71",
"}. c #B6B6B6",
"|. c #B7B7B7",
" X c gray72",
".X c #B9B9B9",
"XX c gray73",
"oX c #BBBBBB",
"OX c #BCBCBC",
"+X c gray74",
"@X c gray",
"#X c gray75",
"$X c #C0C0C0",
"%X c #C1C1C1",
"&X c gray76",
"*X c #C3C3C3",
"=X c gray77",
"-X c #C5C5C5",
";X c #C6C6C6",
":X c gray78",
">X c #C8C8C8",
",X c gray79",
"<X c #CACACA",
"1X c #CBCBCB",
"2X c gray80",
"3X c #CDCDCD",
"4X c #CECECE",
"5X c gray81",
"6X c #D0D0D0",
"7X c gray82",
"8X c #D2D2D2",
"9X c LightGray",
"0X c gray83",
"qX c #D5D5D5",
"wX c gray84",
"eX c #D7D7D7",
"rX c #D8D8D8",
"tX c gray85",
"yX c #DADADA",
"uX c gray86",
"iX c gainsboro",
"pX c #DDDDDD",
"aX c gray87",
"sX c #DFDFDF",
"dX c gray88",
"fX c #E1E1E1",
"gX c #E2E2E2",
"hX c gray89",
"jX c #E4E4E4",
"kX c gray90",
"lX c #E6E6E6",
"zX c #E7E7E7",
"xX c gray91",
"cX c #E9E9E9",
"vX c #EAEAEA",
"bX c gray92",
"nX c #ECECEC",
"mX c gray93",
"MX c #EEEEEE",
"NX c #EFEFEF",
"BX c gray94",
"VX c #F1F1F1",
"CX c gray95",
"ZX c #F3F3F3",
"AX c #F4F4F4",
"SX c gray96",
"DX c #F6F6F6",
"FX c gray97",
"GX c #F8F8F8",
"HX c #F9F9F9",
"JX c gray98",
"KX c #FBFBFB",
"LX c gray99",
"PX c #FDFDFD",
"IX c #FEFEFE",
"UX c white",
/* pixels */
"W.D.L.H.A.G.A.D.L.L.K.J.H.G.F.F.v.n.c.b.F.J.D.H.A.A.Z.Z.C.V.V.B.V.B.B.N.N.B.B.B.B.N.M.V.S.F.F.D.c.c.v.v.b.n.n.m.b.v.v.x.%.+.o...",
"E.S.K.H.Z.D.Z.D.K.J.J.H.G.F.D.D.m.N.b.M.H.K.F.J.Z.Z.Z.C.V.V.B.B.B.N.M.M.M.M.M.M.m.n.n.N.Z.S.S.A.c.v.v.b.b.n.n.m.m.n.b.z.$.o. .{ ",
"Q.F.I.J.Z.D.Z.D.L.L.K.K.J.H.G.G.m.N.n.M.H.K.F.H.Z.Z.Z.C.C.V.V.V.D.S.A.A.S.D.D.S.A.A.A.D.H.K.K.J.v.b.b.n.n.m.m.m.m.b.v.x.&.@.o. .",
"W.F.P.G.M.B.n.N.A.Z.Z.C.C.V.V.B.g.j.f.h.N.C.M.V.M.M.m.m.m.n.n.n.g.f.d.f.j.z.z.l.l.l.l.l.z.x.x.z.j.k.k.k.l.l.l.l.g.f.g.h.$.$.@.o.",
"T.A.H.C.l.l.f.k.j.j.j.h.h.g.g.g.9.w.9.w.h.l.h.l.j.j.j.j.j.j.j.j.4.3.2.5.q.t.y.t.y.y.y.r.e.q.q.q.y.y.u.u.u.u.u.u.e.w.r.u.o.+.O...",
"R.D.K.Z.k.j.s.h.j.j.h.h.h.h.g.g.8.q.8.q.g.k.g.k.h.h.h.h.h.h.h.h.5.3.3.7.r.p.a.i.a.a.p.u.r.w.q.w.t.t.t.t.t.t.t.t.r.w.e.y.O.@.+...",
"R.D.L.A.l.j.f.k.z.z.z.z.l.l.l.l.r.y.e.t.k.z.j.l.k.k.k.k.l.l.l.l.5.2.1.5.e.i.u.t.t.y.y.r.q.8.9.0.i.i.i.i.u.u.u.u.y.e.r.u.+.#.@.X.",
"L.B.F.N.g.d.p.g.s.s.s.s.s.s.s.s.r.y.q.e.g.h.s.f.g.g.g.g.h.h.h.h.q.8.6.9.u.s.a.u.t.u.i.y.e.w.w.r.y.y.y.t.t.t.t.t.0.7.8.w.X.+.o.| ",
"D.z.N.l.9.w.q.8.7.8.0.0.0.q.w.e.g.k.k.d.r.9.9.w.y.y.y.y.y.y.y.y.y.r.r.i.g.l.l.j.y.t.t.y.u.i.i.u.t.i.p.r.6.2.3.5.<.;.>.;.O...X.{ ",
"S.z.N.l.9.w.w.0.q.q.w.w.w.w.e.r.h.k.l.d.r.8.9.q.u.u.u.u.u.u.u.u.p.u.y.a.h.z.z.k.i.u.y.u.i.p.i.u.y.i.i.r.7.3.3.5.,.-.:.-.o. ...[ ",
"S.z.B.l.9.w.w.0.q.q.q.q.q.q.q.w.h.k.k.d.r.9.9.q.u.u.u.u.u.u.u.u.a.p.i.s.h.k.k.h.i.u.u.u.i.p.i.u.r.t.t.w.7.4.4.6.,.-.:.-.o. . .] ",
"F.v.C.x.9.0.0.9.w.w.w.e.r.t.t.t.d.g.g.a.t.q.q.e.t.t.t.t.t.t.t.t.u.y.y.u.a.s.s.a.y.t.r.y.i.p.p.i.t.y.y.t.r.e.e.r.1.;.>.;.O.....[ ",
"K.m.D.c.8.7.7.6.i.u.u.a.f.j.j.h.i.a.a.p.y.r.r.y.w.w.w.w.w.w.w.w.w.w.q.w.e.r.e.e.q.q.q.e.y.i.p.i.p.p.p.s.g.h.j.h.3.,.<.>.+.X.o.{ ",
"P.B.G.v.7.6.5.4.i.u.u.a.h.z.z.k.y.u.i.u.y.y.u.i.0.0.0.0.0.0.0.0.9.9.9.0.0.0.0.0.0.9.0.w.t.i.i.i.u.y.y.a.h.l.z.k.5.<.2.,.@.o.o.} ",
"P.B.H.b.7.5.5.5.y.r.r.u.f.j.h.f.y.y.u.u.y.y.u.u.w.w.w.w.w.w.w.w.0.q.w.q.q.q.q.w.w.q.q.e.t.u.u.y.y.e.e.u.f.k.j.g.5.<.1.,.@.X.o.{ ",
"L.B.H.b.7.6.6.7.p.y.t.i.f.j.h.f.y.u.u.u.y.y.y.y.r.r.r.r.r.r.r.r.e.r.t.r.r.e.r.t.t.r.e.r.y.y.y.t.a.u.t.p.j.x.l.h.4.,.1.>.+.X.X.[ ",
"H.b.Z.c.q.w.w.0.q.q.q.q.q.q.q.q.e.w.q.q.w.w.q.0.k.k.k.l.l.k.k.k.j.j.j.j.j.j.j.j.z.z.k.s.w.6.3.4.t.t.y.i.d.g.h.h.6.4.7.2.O.}  .{ ",
"H.b.Z.c.q.w.w.0.q.q.q.q.q.q.q.q.w.q.0.q.w.w.w.q.g.g.h.h.h.h.g.g.j.j.j.j.j.j.j.j.d.h.j.p.9.2.3.6.r.r.y.i.d.h.j.j.8.6.8.3.+.|  .{ ",
"H.b.Z.c.q.w.w.0.q.q.q.q.q.q.q.q.q.q.q.q.q.q.q.q.h.j.j.j.j.j.j.h.k.k.k.k.k.k.k.k.j.x.c.f.0.1.2.6.y.y.u.a.h.l.z.z.9.6.8.3.@. ...{ ",
"H.b.Z.c.q.w.w.0.q.q.q.q.q.q.q.q.e.e.e.w.0.9.9.0.g.g.h.h.h.h.g.g.s.s.s.s.s.s.s.s.f.h.h.p.w.6.6.8.r.r.t.u.a.f.f.f.6.2.4.1.@...X.} ",
"H.b.Z.c.q.w.w.0.q.q.q.q.q.q.q.q.y.u.y.e.9.6.6.6.u.u.i.i.i.i.u.u.q.q.q.q.q.q.q.q.4.4.5.8.w.t.y.y.0.9.9.0.w.e.e.w.1.:.<.:.+.X.o.| ",
"H.b.Z.c.q.w.w.0.q.q.q.q.q.q.q.q.i.p.i.r.8.4.4.4.y.y.y.u.u.y.y.y.0.0.0.0.0.0.0.0.2.,.,.5.r.a.p.u.w.q.0.0.q.w.q.0.>.=.;.;.+.o.+. .",
"H.b.Z.c.q.w.w.0.q.q.q.q.q.q.q.q.i.p.p.r.8.4.3.5.u.u.i.i.i.i.u.u.w.w.w.w.w.w.w.w.8.6.5.9.r.u.u.t.r.e.w.w.e.r.e.w.,.=.;.;.+.O.+. .",
"H.b.Z.c.q.w.w.0.q.q.q.q.q.q.q.q.y.i.i.r.8.4.4.6.r.t.t.t.t.t.t.r.0.0.0.0.0.0.0.0.3.3.5.8.q.e.t.y.9.8.8.9.0.q.q.0.1.;.:.;.@.O.+.| ",
"C.z.b.a.6.7.2.1.q.q.0.9.8.7.7.6.1.1.1.1.1.1.1.1.<.<.<.<.<.<.<.<.7.7.7.7.7.8.8.8.<.2.3.,.*.$.$.&.>.>.>.<.4.6.6.6.4.4.8.2.#.@.#...",
"B.z.m.f.8.9.6.9.9.9.8.7.6.6.5.4.<.<.<.<.<.<.<.<.,.,.,.,.,.,.,.,.4.4.4.4.5.5.5.5.<.1.2.>.&.@.@.$.;.;.:.<.3.6.7.7.4.4.7.1.@.O.+.} ",
"N.l.m.s.3.1.>.3.e.e.w.q.0.0.9.9.2.2.2.2.2.2.2.2.1.1.1.1.1.1.1.1.7.7.7.8.8.8.8.9.3.4.3.<.=.%.%.&.>.>.,.2.5.8.9.9.6.5.8.2.%.#.#. .",
"B.h.x.a.6.5.1.4.6.5.5.4.4.3.3.2.:.:.:.:.:.:.:.:.;.;.;.;.;.;.;.;.1.1.1.2.2.2.2.3.,.<.<.:.=.%.%.&.-.-.-.:.<.2.3.2.<.,.2.>.@.@.#.| ",
";.} X...{ X.}  .O.O.O.o.o.X.X.X.o.o.o.o.o.o.o.o.X.X.X.X.X.X.X.X...X.X.X.X.o.o.o.@.#.#.#.@.+.+.@.+.O.O.O.@.#.@.+.+.O.$.@.}  ...' ",
">.] | ....#...X.} } } { { { { { | | | | | | | | } } } } } } } } { { { { { } } } o.o.o.O.+.+.@.@.O.X.....X.X... ...| o.X.{  .X.' ",
",.[  ...} ..] } o.o.o.o.o.o.o.o.X.X.X.X.X.X.X.X.X.X.X.X.X.X.X.X.X.X.X.X.X.o.o.o.@.+.+.@.#.$.$.$.#.@.+.+.@.@.+.O.O.X.@.+...O.+.{ ",
">.{ o.+...o...#.X.X.X.X.X.X.X.X.o.o.o.o.o.o.o.o.X.X.X.X.X.X.X.X. . . ...........+.+.O.+.@.#.@.+.@.+.+.+.#.#.#.@.+.o.@.@...O.+.[ ",
"Z.c.v.N.m.N.Z.B.N.N.M.M.N.N.N.M.Z.Z.Z.Z.Z.Z.Z.Z.B.V.V.b.@. ...o.D.K.I.H.S.S.D.D.Z.S.S.V.b.l.z.c.N.N.N.V.Z.S.S.S.x.x.z.c.B.D.A.M.",
"H.N.B.A.Z.A.G.S.A.Z.Z.A.S.S.S.S.H.H.H.H.H.H.H.H.N.C.S.M.$.X.+.%.H.U.T.P.G.G.H.H.D.G.G.Z.m.c.x.v.S.S.S.F.H.K.K.J.m.m.n.N.D.L.K.S.",
"H.N.N.Z.V.Z.D.A.C.C.C.Z.Z.Z.A.A.G.G.G.G.G.G.G.G.S.H.J.C.%...O.%.I.W.!.T.L.L.P.L.J.J.J.D.B.n.b.n.A.Z.Z.S.F.G.G.G.b.n.n.M.A.J.H.A.",
"K.B.B.A.C.Z.D.A.A.S.S.A.Z.C.C.C.G.G.G.G.G.G.G.G.b.n.n.z.O. .X.o.H.I.Y.K.D.S.D.S.B.V.B.m.c.l.l.l.A.Z.Z.A.D.F.F.D.M.N.N.N.A.H.G.Z.",
"p.8.8.w.9.0.e.0.r.t.r.w.8.5.5.6.t.t.t.t.t.t.t.t.6.4.5.8.{ ..o.X.m.C.A.M.c.x.x.x.s.s.s.a.i.u.u.u.9.8.8.9.0.q.0.9.8.9.9.8.0.e.q.7.",
"f.w.w.t.w.w.t.w.p.a.p.y.0.6.6.7.p.p.p.p.p.p.p.p.<.-.=.1.[ O.O. .v.N.B.b.k.h.h.h.t.t.t.t.t.t.t.t.e.w.q.q.w.e.w.q.e.t.r.w.w.r.w.8.",
"a.0.9.w.9.9.w.8.t.u.u.e.7.3.2.4.y.y.y.y.y.y.y.y.6.1.<.5.{ o.o.| m.C.Z.m.z.k.k.k.i.u.u.u.i.i.i.u.q.0.9.9.0.q.0.8.0.w.w.9.9.q.9.6.",
"d.q.0.e.0.0.w.9.t.u.u.r.8.4.4.6.u.u.u.u.u.u.u.u.1.>.<.5.] ..O.X.n.V.C.n.l.j.j.h.i.u.y.y.u.u.y.t.r.e.w.w.e.e.w.0.0.w.w.0.0.w.q.8.",
"n.f.f.j.f.f.j.f.0.q.w.0.6.4.5.6.r.0.9.t.g.x.l.h.9.6.8.2.@.X.@.+.N.N.A.N.s.t.i.y.i.i.i.i.i.i.i.i.i.y.t.i.f.j.h.f.q.0.0.0.q.q.0.8.",
"m.h.g.k.g.h.l.g.q.w.e.0.7.5.5.6.y.w.q.t.d.k.h.s.q.8.9.3.@.X.@.O.C.V.D.V.f.u.a.i.u.u.u.u.u.u.u.u.u.t.t.i.g.k.k.h.q.q.0.q.w.q.0.8.",
"m.h.g.l.g.h.l.h.9.0.0.8.5.3.3.4.0.8.9.r.d.l.l.j.q.8.0.4.@.X.+.O.V.B.S.B.d.t.u.y.i.i.i.i.i.i.i.i.u.t.t.p.g.k.k.j.e.w.q.q.w.w.0.8.",
"b.d.d.h.d.d.h.d.0.q.q.0.0.9.9.0.w.w.e.u.d.j.k.j.8.6.8.2.+...+.O.C.V.D.V.d.y.i.y.t.t.t.t.t.t.t.t.u.y.y.i.d.g.g.f.r.e.w.w.w.w.0.8.",
"l.i.u.a.u.i.s.u.u.u.i.p.s.d.f.f.j.h.f.d.a.p.i.u.3.1.4.,.O...+.+.F.F.K.F.l.d.g.f.7.7.7.7.7.7.7.7.u.u.y.u.i.p.p.i.y.t.e.e.e.w.0.8.",
"h.t.r.i.r.t.i.t.i.i.p.s.h.l.z.z.l.l.k.g.a.u.y.u.<.>.1.:.X. .+.+.F.F.L.F.x.g.j.h.4.4.4.4.4.4.4.4.u.u.u.y.y.y.t.t.u.y.t.r.e.w.9.7.",
"j.t.t.i.t.t.i.t.y.t.y.p.g.k.k.k.d.g.h.g.a.i.a.s.1.,.2.>.X. .+.O.A.A.H.S.l.f.j.g.6.6.6.6.6.6.6.6.y.u.u.u.y.t.y.y.p.u.t.r.r.w.9.7.",
"k.y.y.p.y.u.p.y.i.u.u.a.g.k.k.j.g.j.k.g.i.t.y.i.3.1.3.,.o. .O.O.S.D.K.F.c.h.z.k.4.4.4.4.4.4.4.4.y.u.i.u.u.u.u.i.p.i.y.t.r.w.9.7.",
"d.7.e.w.9.r.0.w.e.q.0.t.g.z.l.j.j.z.x.h.y.q.w.t.;.:.;.&.+.X.X.O.M.M.A.M.p.w.t.r.y.t.r.r.t.t.r.e.e.e.e.e.t.t.r.w.y.w.e.e.q.t.r.3.",
"g.9.t.r.0.y.w.e.9.7.7.w.s.j.j.g.g.k.k.s.e.8.8.0.-.;.-.%.O...X.o.m.m.C.n.u.9.w.0.u.u.u.u.i.i.i.i.0.0.0.q.e.e.w.q.q.8.q.w.0.r.t.5.",
"s.6.w.q.8.e.9.0.w.0.0.t.f.l.l.j.k.z.l.f.t.0.9.q.=.-.=.$.O.....o.m.m.V.b.t.8.0.8.y.y.y.y.u.u.u.u.9.9.0.q.q.q.q.0.8.6.0.q.9.e.t.6.",
"s.6.w.q.8.e.9.0.r.e.e.u.d.j.j.g.h.j.j.d.t.q.q.w.=.-.-.%.+.X.X.O.M.m.V.n.i.w.r.q.u.i.i.u.y.t.y.y.e.r.r.e.w.0.0.0.w.q.t.r.8.0.w.5.",
"k.w.i.y.e.i.t.y.q.0.9.q.r.y.t.r.r.t.t.w.8.6.6.7.-.;.;.*.@.O.O.@.M.m.V.N.g.p.d.p.g.h.h.f.p.u.u.i.s.s.s.p.t.q.0.0.a.p.d.i.8.7.8.1.",
"l.e.p.u.r.p.y.u.0.9.8.9.0.0.9.8.9.9.9.7.5.3.3.4.;.:.;.*.#.+.@.#.M.m.C.V.l.h.l.h.j.k.k.g.p.t.t.y.j.k.k.f.u.w.q.q.j.j.z.d.8.5.5.,.",
"k.w.i.y.e.i.t.y.e.w.w.w.w.w.q.q.q.q.q.9.7.6.5.5.-.;.;.*.@.O.+.#.M.n.V.B.z.k.x.j.g.j.j.f.u.r.r.y.j.l.l.g.u.w.q.w.j.k.c.f.8.4.5.<.",
"x.r.a.p.y.s.u.p.w.w.w.w.w.e.e.w.e.w.q.9.7.5.4.4.*.-.-.&.@.o.O.@.m.b.B.N.l.j.z.h.j.l.z.j.s.u.i.s.g.j.k.f.y.q.0.w.g.j.x.f.8.4.6.2.",
"e.;.1.<.>.4.<.<.2.1.<.1.2.2.2.1.<.:.;.,.4.7.6.4.6.8.8.2.*.+.+.$.x.z.v.k.q.6.8.6.r.t.t.e.q.9.9.9.7.7.7.7.6.6.6.6.2.4.3.<.<.2.<.;.",
"8.%.;.-.*.,.-.-.-.-.=.;.>.,.,.>.;.=.*.:.2.6.6.4.8.0.9.2.&.o.X.O.d.d.k.p.,.$.*.*.6.7.7.5.3.1.1.2.,.,.>.>.>.>.:.:.-.;.;.*.=.-.=.#.",
"8.%.;.-.*.,.-.-.=.*.=.;.,.1.1.<.;.-.;.,.5.9.9.8.e.r.w.5.;.@.+.@.z.x.m.j.4.=.:.>.9.0.0.8.6.5.5.5.1.1.1.1.1.<.<.<.=.-.-.*.*.;.=.$.",
"7.%.-.=.&.>.=.-.=.*.*.-.>.<.<.,.-.-.-.>.2.5.6.5.8.9.8.2.-.$.@.#.h.h.z.f.6.<.3.1.8.9.9.8.6.4.5.5.2.2.2.2.1.1.1.1.*.-.-.*.=.;.-.%.",
"<.X.#.+.o.%.+.@.@.+.+.@.$.%.$.#.+.+.+.#.%.&.&.&.$.%.%.#.o.....X.:.*.;.;.#.@.$.o.*.=.=.*.%.$.$.%.#.#.#.#.@.@.@.@.O.+.+.o.O.#.+...",
":.| o.X. .@.X.o.O.o.X.X.o.o.X.............X.X.X.{ } | | } } |  .| ` [  .} ..X.[ o.O.+.O.X.....X....... . . . . .| .. .} | ..| ] ",
",...+.O.X.$.O.+.O.o.X.o.O.O.o.X.X.o.o.o.X...X.X.| |  .......X.X.X.} ..+...O.@...@.#.#.#.+.O.+.@.O.O.o.o.o.o.X.X...o.X. . .X. .[ ",
",. .+.O.X.$.O.O.X.......o.o.X.....X.o.o.X.X.X.o.X.X.X.X.X.X.X.X.X. .+.@.} | X.| +.@.#.@.O.O.O.+.X.X.X.X.........o.O.o.....o...[ "
};
